<svg xmlns="http://www.w3.org/2000/svg" viewBox="0 0 256 257">
  <defs>
    <linearGradient id="vitea" x1="-.828%" x2="57.636%" y1="7.652%" y2="78.411%">
      <stop offset="0%" stop-color="#41D1FF"/>
      <stop offset="100%" stop-color="#BD34FE"/>
    </linearGradient>
    <linearGradient id="viteb" x1="43.376%" x2="50.316%" y1="2.242%" y2="89.03%">
      <stop offset="0%" stop-color="#FFEA83"/>
      <stop offset="8.333%" stop-color="#FFDD35"/>
      <stop offset="100%" stop-color="#FFA800"/>
    </linearGradient>
  </defs>
  <path fill="url(#vitea)" d="M255.153 37.938 134.897 252.976c-2.483 4.464-8.862 4.466-11.35.004L.875 37.94c-2.746-4.736 1.371-10.534 6.827-9.65l120.385 19.534a6.537 6.537 0 0 0 2.114-.002l117.143-19.472c5.438-.904 9.574 4.758 6.877 9.5Z"/>
  <path fill="url(#viteb)" d="M185.432.063 96.44 17.501a3.268 3.268 0 0 0-2.634 3.014l-5.474 92.456a3.268 3.268 0 0 0 3.997 3.378l24.777-5.718c2.318-.535 4.413 1.507 3.936 3.838l-7.361 37.125c-.495 2.5 1.782 4.668 4.237 3.78l15.304-5.566c2.46-.896 5.046 1.175 4.472 3.736l-11.698 53.486c-.732 3.347 3.979 5.176 5.807 2.24l1.313-2.179 72.516-144.72c1.248-2.491-.88-5.39-3.61-4.845l-25.505 5.082c-2.545.507-4.772-1.831-4.068-4.334l16.646-58.397c.703-2.466-1.37-4.85-3.903-4.338Z"/>
</svg>
